<?xml version="1.0" encoding="UTF-8" standalone="no" ?>
<!DOCTYPE svg PUBLIC "-//W3C//DTD SVG 1.1//EN" "http://www.w3.org/Graphics/SVG/1.1/DTD/svg11.dtd">
<svg xmlns="http://www.w3.org/2000/svg" xmlns:xlink="http://www.w3.org/1999/xlink" version="1.1" width="1080" height="1080" viewBox="0 0 1080 1080" xml:space="preserve">
<desc>Created with Fabric.js 5.2.4</desc>
<defs>
</defs>
<g transform="matrix(1 0 0 1 540 540)" id="4fdc9fac-72c2-4ade-9075-aae9a2f189ee"  >
</g>
<g transform="matrix(1 0 0 1 540 540)" id="f5f3e0df-c944-4e79-b817-4878664483b1"  >
<rect style="stroke: none; stroke-width: 1; stroke-dasharray: none; stroke-linecap: butt; stroke-dashoffset: 0; stroke-linejoin: miter; stroke-miterlimit: 4; fill: rgb(255,255,255); fill-rule: nonzero; opacity: 1; visibility: hidden;" vector-effect="non-scaling-stroke"  x="-540" y="-540" rx="0" ry="0" width="1080" height="1080" />
</g>
<g transform="matrix(0 0 0 0 0 0)"  >
<g style=""   >
</g>
</g>
<g transform="matrix(5.29 0 0 5.29 540 576.23)"  >
<g style="" vector-effect="non-scaling-stroke"   >
		<g transform="matrix(0.13 0 0 -0.13 -50.68 -30.29)"  >
<path style="stroke: none; stroke-width: 1; stroke-dasharray: none; stroke-linecap: butt; stroke-dashoffset: 0; stroke-linejoin: miter; stroke-miterlimit: 4; fill: rgb(255,255,255); fill-rule: nonzero; opacity: 1;" vector-effect="non-scaling-stroke"  transform=" translate(-1074.41, -2329.1)" d="M 710 2512 C 710 2499 841 2412 980 2334 C 1037 2302 1105 2254 1130 2229 C 1192 2166 1270 2121 1270 2148 C 1270 2152 1255 2161 1238 2168 C 1220 2174 1180 2204 1150 2233 C 1120 2262 1061 2306 1020 2329 C 837 2434 770 2475 770 2481 C 770 2484 821 2472 883 2453 C 989 2421 1000 2419 1102 2425 C 1183 2429 1217 2427 1242 2416 C 1260 2408 1291 2396 1310 2389 C 1329 2381 1364 2358 1388 2336 C 1411 2315 1433 2300 1437 2304 C 1451 2318 1382 2374 1310 2408 C 1232 2445 1226 2445 1060 2440 C 1003 2439 966 2444 905 2463 C 861 2477 806 2494 782 2500 C 758 2506 732 2514 724 2517 C 716 2520 710 2517 710 2512 z" stroke-linecap="round" />
</g>
		<g transform="matrix(0.13 0 0 -0.13 -6.48 -11.07)"  >
<path style="stroke: none; stroke-width: 1; stroke-dasharray: none; stroke-linecap: butt; stroke-dashoffset: 0; stroke-linejoin: miter; stroke-miterlimit: 4; fill: rgb(255,255,255); fill-rule: nonzero; opacity: 1;" vector-effect="non-scaling-stroke"  transform=" translate(-1405.88, -2184.9)" d="M 1079 2347 C 1085 2339 1109 2328 1132 2320 C 1175 2308 1207 2292 1335 2220 C 1374 2198 1420 2173 1438 2165 C 1455 2157 1470 2143 1470 2135 C 1470 2127 1475 2120 1480 2120 C 1501 2120 1488 2100 1444 2064 C 1403 2030 1396 2028 1378 2039 C 1360 2050 1358 2050 1364 2035 C 1367 2026 1370 2016 1370 2014 C 1370 2012 1379 2010 1389 2010 C 1400 2010 1430 2028 1456 2051 C 1532 2116 1539 2118 1617 2082 C 1702 2043 1744 2032 1738 2050 C 1736 2057 1721 2064 1705 2065 C 1670 2068 1577 2108 1602 2109 C 1611 2110 1640 2101 1666 2090 C 1699 2075 1709 2074 1701 2084 C 1686 2102 1606 2130 1568 2130 C 1545 2130 1430 2179 1411 2196 C 1403 2203 1452 2248 1481 2260 C 1497 2267 1510 2276 1510 2281 C 1510 2294 1504 2292 1462 2271 C 1442 2261 1403 2250 1377 2247 C 1337 2241 1323 2244 1292 2264 C 1272 2276 1248 2289 1240 2293 C 1228 2297 1229 2299 1243 2299 C 1273 2301 1251 2320 1220 2320 C 1204 2320 1168 2329 1140 2340 C 1079 2364 1063 2366 1079 2347 z" stroke-linecap="round" />
</g>
		<g transform="matrix(0.13 0 0 -0.13 33.36 -4.8)"  >
<path style="stroke: none; stroke-width: 1; stroke-dasharray: none; stroke-linecap: butt; stroke-dashoffset: 0; stroke-linejoin: miter; stroke-miterlimit: 4; fill: rgb(255,255,255); fill-rule: nonzero; opacity: 1;" vector-effect="non-scaling-stroke"  transform=" translate(-1704.68, -2137.9)" d="M 1555 2190 C 1547 2176 1601 2168 1713 2165 C 1772 2164 1824 2159 1828 2155 C 1837 2146 1792 2110 1771 2110 C 1761 2110 1745 2103 1734 2095 C 1716 2081 1717 2080 1745 2086 C 1789 2096 1827 2117 1844 2142 C 1859 2163 1859 2165 1843 2172 C 1833 2175 1780 2179 1725 2179 C 1670 2180 1610 2184 1593 2189 C 1575 2194 1558 2195 1555 2190 z" stroke-linecap="round" />
</g>
		<g transform="matrix(0.13 0 0 -0.13 41.4 15.43)"  >
<path style="stroke: none; stroke-width: 1; stroke-dasharray: none; stroke-linecap: butt; stroke-dashoffset: 0; stroke-linejoin: miter; stroke-miterlimit: 4; fill: rgb(255,255,255); fill-rule: nonzero; opacity: 1;" vector-effect="non-scaling-stroke"  transform=" translate(-1765, -1986.2)" d="M 1830 2100 C 1830 2095 1842 2088 1858 2085 C 1873 2082 1903 2074 1924 2069 L 1964 2058 L 1924 2025 C 1903 2007 1885 1988 1885 1982 C 1885 1964 1801 1880 1783 1880 C 1761 1880 1728 1901 1680 1947 C 1661 1965 1636 1982 1625 1985 C 1570 1996 1520 1999 1520 1991 C 1520 1982 1568 1970 1607 1970 C 1622 1970 1654 1950 1691 1918 C 1735 1880 1758 1867 1782 1867 C 1807 1867 1821 1877 1857 1918 C 1906 1975 1921 1979 1965 1950 C 1997 1929 2010 1925 2010 1938 C 2010 1943 1988 1957 1961 1970 L 1912 1992 L 1946 2022 C 1965 2039 1980 2055 1980 2059 C 1980 2067 1903 2097 1863 2104 C 1845 2107 1830 2105 1830 2100 z" stroke-linecap="round" />
</g>
		<g transform="matrix(0.13 0 0 -0.13 78.67 43.84)"  >
<path style="stroke: none; stroke-width: 1; stroke-dasharray: none; stroke-linecap: butt; stroke-dashoffset: 0; stroke-linejoin: miter; stroke-miterlimit: 4; fill: rgb(255,255,255); fill-rule: nonzero; opacity: 1;" vector-effect="non-scaling-stroke"  transform=" translate(-2044.49, -1773.1)" d="M 1974 1852 C 1977 1847 2022 1815 2074 1779 C 2126 1744 2169 1712 2170 1708 C 2170 1699 2106 1724 1987 1779 C 1892 1823 1890 1824 1890 1812 C 1890 1807 1920 1790 1958 1775 C 1995 1759 2030 1743 2036 1738 C 2055 1724 2184 1681 2192 1686 C 2209 1697 2197 1711 2133 1756 C 2095 1782 2048 1816 2028 1832 C 1993 1858 1963 1870 1974 1852 z" stroke-linecap="round" />
</g>
</g>
</g>
</svg>